HIERARCHY
ROOT Hips
{
  OFFSET 53.1892 95.7529 9.73926
  CHANNELS 6 Xposition Yposition Zposition Zrotation Xrotation Yrotation
  JOINT spine
  {
    OFFSET 0 7.96568 0.458067
    CHANNELS 3 Zrotation Xrotation Yrotation
    JOINT spine1
    {
      OFFSET 0 10.2431 0
      CHANNELS 3 Zrotation Xrotation Yrotation
      JOINT spine2
      {
        OFFSET 0 9.81475 0
        CHANNELS 3 Zrotation Xrotation Yrotation
        JOINT Neck
        {
          OFFSET 0 25.1986 1.20138
          CHANNELS 3 Zrotation Xrotation Yrotation
          JOINT Head
          {
            OFFSET 0 7.61315 0
            CHANNELS 3 Zrotation Xrotation Yrotation
            End Site
            {
              OFFSET 0 18.4281 -6.07733
            }
          }
        }
        JOINT RightShoulder
        {
          OFFSET -4.1327 10.5992 -0.575451
          CHANNELS 3 Zrotation Xrotation Yrotation
          JOINT RightArm
          {
            OFFSET 0 13.9018 0
            CHANNELS 3 Zrotation Xrotation Yrotation
            JOINT RightArmRoll
            {
              OFFSET 0 7.01789 0
              CHANNELS 3 Zrotation Xrotation Yrotation
              JOINT RightForeArm
              {
                OFFSET 0 20.4406 0
                CHANNELS 3 Zrotation Xrotation Yrotation
                JOINT RightForeArmRoll
                {
                  OFFSET 0 7.87516 0
                  CHANNELS 3 Zrotation Xrotation Yrotation
                  JOINT RightHand
                  {
                    OFFSET 0 15.8037 0
                    CHANNELS 3 Zrotation Xrotation Yrotation
                    End Site
                    {
                      OFFSET 0 0 0
                    }
                  }
                }
              }
            }
          }
        }
        JOINT LeftShoulder
        {
          OFFSET 4.1327 10.5992 -0.575451
          CHANNELS 3 Zrotation Xrotation Yrotation
          JOINT LeftArm
          {
            OFFSET 0 13.9018 0
            CHANNELS 3 Zrotation Xrotation Yrotation
            JOINT LeftArmRoll
            {
              OFFSET 0 7.01788 0
              CHANNELS 3 Zrotation Xrotation Yrotation
              JOINT LeftForeArm
              {
                OFFSET 0 20.4406 0
                CHANNELS 3 Zrotation Xrotation Yrotation
                JOINT LeftForeArmRoll
                {
                  OFFSET 0 7.87516 0
                  CHANNELS 3 Zrotation Xrotation Yrotation
                  JOINT LeftHand
                  {
                    OFFSET 0 15.8037 0
                    CHANNELS 3 Zrotation Xrotation Yrotation
                    End Site
                    {
                      OFFSET 0 0 0
                    }
                  }
                }
              }
            }
          }
        }
      }
    }
  }
  JOINT RightUpLeg
  {
    OFFSET -7.06048 -1.2947 -1.0861
    CHANNELS 3 Zrotation Xrotation Yrotation
    JOINT RightUpLegRoll
    {
      OFFSET 0 18.5308 0
      CHANNELS 3 Zrotation Xrotation Yrotation
      JOINT RightLeg
      {
        OFFSET 0 -22.9476 0
        CHANNELS 3 Zrotation Xrotation Yrotation
        JOINT RightLegRoll
        {
          OFFSET 0 23.0226 0
          CHANNELS 3 Zrotation Xrotation Yrotation
          JOINT RightFoot
          {
            OFFSET 0 19.1625 0
            CHANNELS 3 Zrotation Xrotation Yrotation
            JOINT RightToeBase
            {
              OFFSET 0 16.0188 0
              CHANNELS 3 Zrotation Xrotation Yrotation
              End Site
              {
                OFFSET 0.00678979 7.75781 -0.894207
              }
            }
          }
        }
      }
    }
  }
  JOINT LeftUpLeg
  {
    OFFSET 7.06048 -1.2947 -1.0861
    CHANNELS 3 Zrotation Xrotation Yrotation
    JOINT LeftUpLegRoll
    {
      OFFSET 0 18.5309 0
      CHANNELS 3 Zrotation Xrotation Yrotation
      JOINT LeftLeg
      {
        OFFSET 0 22.9475 0
        CHANNELS 3 Zrotation Xrotation Yrotation
        JOINT LeftLegRoll
        {
          OFFSET 0 23.2355 0
          CHANNELS 3 Zrotation Xrotation Yrotation
          JOINT LeftFoot
          {
            OFFSET 0 18.9496 0
            CHANNELS 3 Zrotation Xrotation Yrotation
            JOINT LeftToeBase
            {
              OFFSET 0 16.0188 0
              CHANNELS 3 Zrotation Xrotation Yrotation
              End Site
              {
                OFFSET -0.0304289 7.75781 -0.894207
              }
            }
          }
        }
      }
    }
  }
}
MOTION
Frames: 10
Frame Time: 0.00208333
52.2542 95.7248 10.5794 -0.207421 -1.45587 1.41858 0.0188746 -2.13417 -0.0907506 0.0296548 -0.265557 -0.205792 0.0320307 1.37951 -0.206226 1.919 22.861 -0.143582 -2.74272 -0.268641 0.240319 73.4051 2.1182 -0.752756 104.273 14.6645 29.8951 -1.48172e-005 3.19556e-007 2.60516e-006 -4.2861 -0.0363236 0.457673 -1.6189e-006 1.22461e-006 -3.03222 8.0301 -4.95139 0.697624 -71.5742 1.46044 0.819948 -103.744 19.381 -27.6984 -3.18055e-015 -3.18055e-015 3.18055e-015 6.7303 1.32198 -0.957811 -5.69763e-007 7.41597e-007 3.00292 -8.03034 -4.95138 -0.697623 175.258 -1.19696 -1.99436 180 7.01526e-015 178.837 177.905 5.38842 179.562 6.62385e-007 -5.90768e-006 0.0866565 -19.3266 68.5715 20.0094 8.13649 25.2326 -3.48774 -173.334 0.46643 0.119425 4.54188e-006 -4.6773e-006 -1.13399 -1.91496 -5.55579 0.123477 3.86755e-006 -5.92031e-006 -0.0211175 18.1041 67.9628 -19.5105 -8.13649 25.2327 3.48773 
52.2637 95.7238 10.5692 -0.199992 -1.45248 1.40347 0.020409 -2.13422 -0.0890981 0.0320104 -0.265654 -0.201292 0.0343401 1.37942 -0.201772 1.75361 22.8642 -0.0951752 -2.6281 -0.279339 0.242886 73.3293 2.15285 -0.726818 104.301 14.6373 29.9725 -1.48172e-005 3.19556e-007 2.60516e-006 -4.3607 -0.036249 0.465109 -1.6189e-006 1.22461e-006 -3.03222 8.0301 -4.95139 0.697624 -71.6881 1.46152 0.833679 -103.62 19.4092 -27.7594 4.77083e-015 0 -3.18055e-015 6.74633 1.30803 -0.957902 -5.69763e-007 7.41597e-007 3.00292 -8.03034 -4.95138 -0.697623 175.245 -1.1881 -1.98421 180 7.01526e-015 178.837 177.899 5.39364 179.563 6.62385e-007 -5.90768e-006 0.0866565 -19.3287 68.5738 20.0117 8.13649 25.2326 -3.48774 -173.344 0.458022 0.124191 4.54188e-006 -4.6773e-006 -1.13421 -1.91687 -5.54231 0.122964 3.86755e-006 -5.92031e-006 -0.0211175 18.1093 67.9609 -19.5083 -8.13649 25.2327 3.48773 
52.2613 95.724 10.574 -0.19259 -1.44894 1.38799 0.0220174 -2.13431 -0.0874653 0.0344524 -0.265834 -0.196798 0.0367362 1.37924 -0.197326 1.58636 22.8669 -0.0460324 -2.51141 -0.288976 0.245768 73.2536 2.18959 -0.699938 104.331 14.609 30.0496 -1.48172e-005 3.19556e-007 2.60516e-006 -4.43519 -0.0361477 0.472509 -1.6189e-006 1.22461e-006 -3.03222 8.0301 -4.95139 0.697624 -71.8031 1.46264 0.847541 -103.494 19.4375 -27.8209 0 0 -0 6.76219 1.29321 -0.957876 -5.69763e-007 7.41597e-007 3.00292 -8.03034 -4.95138 -0.697623 175.232 -1.17884 -1.97371 180 7.01526e-015 178.837 177.892 5.39911 179.564 6.62385e-007 -5.90768e-006 0.0866565 -19.3307 68.576 20.0138 8.13649 25.2326 -3.48774 -173.355 0.449653 0.128855 4.54188e-006 -4.6773e-006 -1.13442 -1.91888 -5.5288 0.122452 3.86755e-006 -5.92031e-006 -0.0211175 18.1146 67.959 -19.5061 -8.13649 25.2327 3.48773 
52.2728 95.7268 10.5994 -0.185206 -1.4453 1.37224 0.0236778 -2.13443 -0.0858463 0.0369548 -0.266072 -0.192309 0.039193 1.379 -0.192886 1.41782 22.8692 0.00362609 -2.39326 -0.29787 0.248871 73.178 2.22778 -0.672399 104.362 14.5798 30.1263 -1.48172e-005 3.19556e-007 2.60516e-006 -4.50962 -0.0360276 0.479883 -1.6189e-006 1.22461e-006 -3.03222 8.0301 -4.95139 0.697624 -71.9189 1.46378 0.861497 -103.367 19.4658 -27.8829 -4.77083e-015 0 -3.18055e-015 6.77792 1.27779 -0.957766 -5.69763e-007 7.41597e-007 3.00292 -8.03034 -4.95138 -0.697623 175.218 -1.1693 -1.96296 180 7.01526e-015 178.837 177.885 5.40475 179.565 6.62385e-007 -5.90768e-006 0.0866565 -19.3326 68.5782 20.0158 8.13649 25.2326 -3.48774 -173.365 0.441313 0.133448 4.54188e-006 -4.6773e-006 -1.13462 -1.92095 -5.51526 0.121942 3.86755e-006 -5.92031e-006 -0.0211175 18.1199 67.9572 -19.5039 -8.13649 25.2327 3.48773 
52.2767 95.7268 10.5968 -0.177832 -1.44159 1.35635 0.0253678 -2.13456 -0.0842352 0.0394918 -0.266342 -0.187822 0.0416844 1.37873 -0.188448 1.24853 22.8713 0.0535797 -2.27429 -0.306339 0.2521 73.1023 2.26681 -0.644482 104.394 14.5502 30.2029 -1.48172e-005 3.19556e-007 2.60516e-006 -4.584 -0.0358967 0.487241 -1.6189e-006 1.22461e-006 -3.03222 8.0301 -4.95139 0.697624 -72.0352 1.46493 0.875505 -103.239 19.4942 -27.9451 6.36111e-015 0 3.18055e-015 6.79358 1.26204 -0.957608 -5.69763e-007 7.41597e-007 3.00292 -8.03034 -4.95138 -0.697623 175.205 -1.15961 -1.95207 180 7.01526e-015 178.837 177.878 5.41047 179.565 6.62385e-007 -5.90768e-006 0.0866565 -19.3345 68.5803 20.0179 8.13649 25.2326 -3.48774 -173.375 0.432989 0.137999 4.54188e-006 -4.6773e-006 -1.13482 -1.92307 -5.50172 0.121433 3.86755e-006 -5.92031e-006 -0.0211175 18.1251 67.9554 -19.5017 -8.13649 25.2327 3.48773 
52.2664 95.7278 10.5802 -0.170458 -1.43786 1.34041 0.0270652 -2.1347 -0.0826261 0.0420374 -0.266621 -0.183336 0.0441845 1.37845 -0.184012 1.07906 22.8733 0.103608 -2.15511 -0.314702 0.25536 73.0267 2.30605 -0.616469 104.427 14.5205 30.2795 -1.48172e-005 3.19556e-007 2.60516e-006 -4.65838 -0.0357632 0.494596 -1.6189e-006 1.22461e-006 -3.03222 8.0301 -4.95139 0.697624 -72.1516 1.46608 0.889526 -103.111 19.5226 -28.0074 4.77083e-015 9.54166e-015 -0 6.80922 1.24619 -0.957439 -5.69763e-007 7.41597e-007 3.00292 -8.03034 -4.95138 -0.697623 175.191 -1.14987 -1.94114 180 7.01526e-015 178.837 177.871 5.41624 179.566 6.62385e-007 -5.90768e-006 0.0866565 -19.3364 68.5824 20.0199 8.13649 25.2326 -3.48774 -173.386 0.424668 0.142541 4.54188e-006 -4.6773e-006 -1.13502 -1.92519 -5.48817 0.120923 3.86755e-006 -5.92031e-006 -0.0211175 18.1304 67.9536 -19.4996 -8.13649 25.2327 3.48773 
52.2739 95.7276 10.5891 -0.163077 -1.43417 1.32456 0.0287479 -2.13483 -0.081013 0.0445658 -0.266884 -0.178848 0.0466674 1.37819 -0.179574 0.90995 22.8754 0.153491 -2.03634 -0.323278 0.258557 72.9509 2.34487 -0.588644 104.459 14.4911 30.3561 -1.48172e-005 3.19556e-007 2.60516e-006 -4.73278 -0.035635 0.501959 -1.6189e-006 1.22461e-006 -3.03222 8.0301 -4.95139 0.697624 -72.2677 1.46723 0.903521 -102.983 19.5508 -28.0696 7.95139e-015 3.18055e-015 -3.18055e-015 6.8249 1.23052 -0.957293 -5.69763e-007 7.41597e-007 3.00292 -8.03034 -4.95138 -0.697623 175.178 -1.14022 -1.93028 180 7.01526e-015 178.837 177.864 5.42195 179.567 6.62385e-007 -5.90768e-006 0.0866565 -19.3382 68.5845 20.0219 8.13649 25.2326 -3.48774 -173.396 0.41634 0.147103 4.54188e-006 -4.6773e-006 -1.13522 -1.92729 -5.47463 0.120414 3.86755e-006 -5.92031e-006 -0.0211175 18.1357 67.9518 -19.4974 -8.13649 25.2327 3.48773 
52.2696 95.7256 10.5752 -0.155679 -1.43056 1.30889 0.0303934 -2.13494 -0.07939 0.0470511 -0.267105 -0.174357 0.049107 1.37797 -0.175132 0.741759 22.8778 0.20301 -1.91861 -0.332384 0.261597 72.8751 2.38265 -0.561288 104.491 14.4622 30.4329 -1.48172e-005 3.19556e-007 2.60516e-006 -4.80722 -0.0355203 0.50934 -1.6189e-006 1.22461e-006 -3.03222 8.0301 -4.95139 0.697624 -72.3833 1.46836 0.917449 -102.856 19.5789 -28.1316 4.77083e-015 3.18055e-015 -3.18055e-015 6.84067 1.21528 -0.957207 -5.69763e-007 7.41597e-007 3.00292 -8.03034 -4.95138 -0.697623 175.165 -1.13076 -1.91961 180 7.01526e-015 178.837 177.857 5.42754 179.568 6.62385e-007 -5.90768e-006 0.0866565 -19.3402 68.5867 20.024 8.13649 25.2326 -3.48774 -173.406 0.407992 0.151716 4.54188e-006 -4.6773e-006 -1.13543 -1.92935 -5.46111 0.119903 3.86755e-006 -5.92031e-006 -0.0211175 18.141 67.9499 -19.4952 -8.13649 25.2327 3.48773 
52.2788 95.7288 10.5821 -0.148257 -1.42706 1.29352 0.0319797 -2.13502 -0.0777513 0.0494674 -0.26726 -0.169862 0.0514773 1.37781 -0.170684 0.575038 22.8805 0.251943 -1.80253 -0.342339 0.264384 72.7992 2.41876 -0.534684 104.52 14.4342 30.51 -1.48172e-005 3.19556e-007 2.60516e-006 -4.88175 -0.0354269 0.516751 -1.6189e-006 1.22461e-006 -3.03222 8.0301 -4.95139 0.697624 -72.498 1.46947 0.931272 -102.731 19.6068 -28.1931 3.18055e-015 6.36111e-015 3.18055e-015 6.85658 1.20072 -0.957216 -5.69763e-007 7.41597e-007 3.00292 -8.03034 -4.95138 -0.697623 175.151 -1.12162 -1.90921 180 7.01526e-015 178.837 177.851 5.43292 179.569 6.62385e-007 -5.90768e-006 0.0866565 -19.3422 68.5889 20.0261 8.13649 25.2326 -3.48774 -173.417 0.399611 0.156411 4.54188e-006 -4.6773e-006 -1.13564 -1.93133 -5.4476 0.119391 3.86755e-006 -5.92031e-006 -0.0211175 18.1462 67.9481 -19.493 -8.13649 25.2327 3.48773 
52.2803 95.73 10.5859 -0.140801 -1.42374 1.27856 0.0334845 -2.13505 -0.0760909 0.0517887 -0.267325 -0.165359 0.0537522 1.37775 -0.166227 0.410338 22.8837 0.300073 -1.68873 -0.353462 0.266825 72.7231 2.45257 -0.509114 104.547 14.4074 30.5875 -1.48172e-005 3.19556e-007 2.60516e-006 -4.95638 -0.0353631 0.524202 -1.6189e-006 1.22461e-006 -3.03222 8.0301 -4.95139 0.697624 -72.6114 1.47054 0.94495 -102.607 19.6345 -28.2541 -1.59028e-015 0 6.36111e-015 6.87269 1.1871 -0.957356 -5.69763e-007 7.41597e-007 3.00292 -8.03034 -4.95138 -0.697623 175.138 -1.11291 -1.8992 180 7.01526e-015 178.837 177.845 5.43805 179.569 6.62385e-007 -5.90768e-006 0.0866565 -19.3443 68.5913 20.0284 8.13649 25.2326 -3.48774 -173.427 0.391187 0.161217 4.54188e-006 -4.6773e-006 -1.13586 -1.9332 -5.43413 0.118878 3.86755e-006 -5.92031e-006 -0.0211175 18.1515 67.9462 -19.4908 -8.13649 25.2327 3.48773 
